# Blender 4.1.1
# www.blender.org
mtllib parts_01.mtl
o 体_02
v 1.066522 3.608209 -0.195355
v 1.291152 3.417483 -0.309294
v 1.066522 3.608209 0.195355
v 1.291152 3.417483 0.309294
v -0.286256 4.142597 -0.238475
v -0.735516 3.779695 -0.356624
v -0.286256 4.142597 0.238475
v -0.735516 3.779695 0.356624
v 0.236703 3.939416 -0.157037
v 0.702904 3.760879 -0.133549
v 0.244943 3.958511 -0.133549
v 0.709667 3.776550 -0.104929
v 0.251706 3.974182 -0.104929
v 0.714692 3.788194 -0.072276
v 0.256731 3.985826 -0.072276
v 0.717786 3.795365 -0.036846
v 0.259826 3.992997 -0.036846
v 0.718831 3.797786 0.000000
v 0.260870 3.995418 0.000000
v 0.717786 3.795365 0.036846
v 0.259826 3.992997 0.036846
v 0.714692 3.788194 0.072276
v 0.256731 3.985826 0.072276
v 0.709667 3.776550 0.104929
v 0.251706 3.974182 0.104929
v 0.702904 3.760879 0.133549
v 0.244943 3.958511 0.133549
v 0.236703 3.939416 0.157037
v 0.235448 3.936508 -0.159367
v 0.329907 3.899194 -0.157037
v 0.699575 3.753164 -0.143039
v 0.329907 3.899194 0.157037
v 0.699575 3.753164 0.143039
v 0.235448 3.936508 0.159367
vn 0.3674 0.9301 -0.0000
vn 0.1282 0.6155 0.7776
vn -0.6284 0.7779 -0.0000
vn -0.1759 -0.9844 -0.0000
vn 0.6472 0.7623 -0.0000
vn 0.1282 0.6155 -0.7776
vn 0.2348 0.5440 -0.8055
vn 0.2967 0.6874 -0.6629
vn 0.3403 0.7886 -0.5122
vn 0.3693 0.8559 -0.3621
vn 0.3869 0.8966 -0.2153
vn 0.3952 0.9158 -0.0714
vn 0.3952 0.9158 0.0714
vn 0.3869 0.8966 0.2153
vn 0.3693 0.8559 0.3621
vn 0.3403 0.7886 0.5122
vn 0.2967 0.6874 0.6629
vn 0.2348 0.5440 0.8055
vn -0.9182 0.3962 -0.0000
vn 0.9182 -0.3962 -0.0000
vn -0.3674 -0.9301 -0.0000
vn 0.1053 0.1876 0.9766
vn 0.1053 0.1876 -0.9766
vn -0.9181 0.3962 -0.0000
vn 0.9181 -0.3962 -0.0000
vt 0.749951 0.500000
vt 0.500000 0.749951
vt 0.500000 0.500000
vt 0.250050 0.999901
vt 0.250050 0.749951
vt 0.500000 0.000099
vt 0.250050 0.250050
vt 0.250050 0.000099
vt 0.250050 0.500000
vt 0.000099 0.749951
vt 0.000099 0.500000
vt 0.750148 0.179570
vt 0.750149 0.002999
vt 0.818451 0.179373
vt 0.835904 0.000112
vt 0.749951 0.749951
vt 0.500000 0.999901
vt 0.500000 0.250050
vt 0.818451 0.000099
vt 0.750148 0.176473
vt 0.835904 0.179360
s 0
usemtl Material
f 5/1/1 3/2/1 1/3/1
f 3/2/2 8/4/2 4/5/2
f 7/6/3 6/7/3 8/8/3
f 2/9/4 8/10/4 6/11/4
f 1/3/5 4/5/5 2/9/5
f 6/7/6 1/3/6 2/9/6
f 29/12/7 9/12/7 30/12/7
f 10/12/8 30/12/8 9/12/8
f 11/12/9 12/12/9 10/12/9
f 13/12/10 14/12/10 12/12/10
f 15/12/11 16/12/11 14/12/11
f 17/12/12 18/12/12 16/12/12
f 18/12/13 21/12/13 20/12/13
f 20/12/14 23/12/14 22/12/14
f 22/12/15 25/12/15 24/12/15
f 24/12/16 27/12/16 26/12/16
f 26/12/17 28/12/17 32/12/17
f 32/12/18 28/12/18 34/12/18
f 27/12/19 19/12/19 11/12/19
f 12/12/20 20/12/20 33/12/20
f 31/13/21 32/14/21 29/15/21
f 5/1/1 7/16/1 3/2/1
f 3/2/22 7/17/22 8/4/22
f 7/6/3 5/18/3 6/7/3
f 2/9/4 4/5/4 8/10/4
f 1/3/5 3/2/5 4/5/5
f 6/7/23 5/18/23 1/3/23
f 9/12/8 11/12/8 10/12/8
f 10/12/8 31/12/8 30/12/8
f 11/12/9 13/12/9 12/12/9
f 13/12/10 15/12/10 14/12/10
f 15/12/11 17/12/11 16/12/11
f 17/12/12 19/12/12 18/12/12
f 18/12/13 19/12/13 21/12/13
f 20/12/14 21/12/14 23/12/14
f 22/12/15 23/12/15 25/12/15
f 24/12/16 25/12/16 27/12/16
f 32/12/17 33/12/17 26/12/17
f 26/12/17 27/12/17 28/12/17
f 34/12/24 28/12/24 27/12/24
f 27/12/19 25/12/19 23/12/19
f 23/12/19 21/12/19 19/12/19
f 19/12/19 17/12/19 15/12/19
f 15/12/19 13/12/19 11/12/19
f 11/12/24 9/12/24 29/12/24
f 29/12/19 34/12/19 27/12/19
f 27/12/19 23/12/19 19/12/19
f 19/12/19 15/12/19 11/12/19
f 11/12/19 29/12/19 27/12/19
f 31/12/20 10/12/20 12/12/20
f 12/12/20 14/12/20 16/12/20
f 16/12/25 18/12/25 20/12/25
f 20/12/20 22/12/20 24/12/20
f 24/12/20 26/12/20 33/12/20
f 33/12/20 31/12/20 12/12/20
f 12/12/20 16/12/20 20/12/20
f 20/12/20 24/12/20 33/12/20
f 29/15/21 30/19/21 31/13/21
f 31/13/21 33/20/21 32/14/21
f 32/14/21 34/21/21 29/15/21
