# Blender 4.1.1
# www.blender.org
mtllib parts_03.mtl
o 装飾_01
v -1.255039 4.805696 0.341561
v -0.791602 4.066143 0.389039
v 0.034249 3.989229 0.389039
v -0.102077 3.003222 0.389039
v -1.255039 4.805696 0.332853
v -0.791602 4.066143 0.285375
v 0.034249 3.989229 0.285375
v -0.102077 3.003222 0.285375
vn 0.0063 0.0680 0.9977
vn 0.9906 -0.1370 -0.0000
vn 0.0063 0.0680 -0.9977
vn -0.8474 -0.5310 -0.0000
vn 0.5350 0.8448 -0.0000
vn -0.8389 -0.5442 -0.0000
vn -0.0000 -0.0000 1.0000
vn -0.0000 -0.0000 -1.0000
vt 0.625000 0.000000
vt 0.375000 0.250000
vt 0.375000 0.000000
vt 0.625000 0.250000
vt 0.375000 0.500000
vt 0.625000 0.750000
vt 0.375000 0.750000
vt 0.625000 1.000000
vt 0.375000 1.000000
vt 0.125000 0.500000
vt 0.125000 0.750000
vt 0.625000 0.500000
vt 0.875000 0.750000
vt 0.875000 0.500000
s 0
usemtl マテリアル
f 2/1/1 3/2/1 1/3/1
f 4/4/2 7/5/2 3/2/2
f 7/5/3 6/6/3 5/7/3
f 5/7/4 2/8/4 1/9/4
f 3/10/5 5/7/5 1/11/5
f 8/12/6 2/13/6 6/6/6
f 2/1/7 4/4/7 3/2/7
f 4/4/2 8/12/2 7/5/2
f 7/5/8 8/12/8 6/6/8
f 5/7/4 6/6/4 2/8/4
f 3/10/5 7/5/5 5/7/5
f 8/12/6 4/14/6 2/13/6
