# Blender 4.1.1
# www.blender.org
mtllib parts_02.mtl
o 右羽
v -0.427531 3.527026 -0.367522
v -0.427531 3.700804 -0.367522
v -0.381065 3.323073 -2.272659
v -0.381065 3.496850 -2.272659
v -0.073158 3.527026 -0.363023
v -0.073158 3.700804 -0.363023
v -0.485765 3.323073 -2.520390
v -0.485765 3.496850 -2.520390
v -0.330475 3.323073 -1.553532
v -0.330475 3.496850 -1.553532
v 0.118529 3.323073 -1.505570
v 0.118529 3.496850 -1.505570
v -0.301208 3.496850 -2.021689
v -0.008284 3.323073 -2.197757
v -0.301208 3.323073 -2.021689
v -0.008284 3.496850 -2.197757
v -0.426923 3.527026 -0.959960
v 0.247018 3.700804 -0.962984
v -0.426923 3.700804 -0.959960
v 0.247018 3.527026 -0.962984
vn -0.9529 -0.0000 0.3032
vn -0.9211 -0.0000 0.3893
vn 0.8822 -0.0000 0.4708
vn -0.0127 -0.0000 0.9999
vn -0.0000 -1.0000 -0.0000
vn -0.0000 1.0000 -0.0000
vn 0.9836 -0.0000 -0.1802
vn -0.9871 -0.0000 -0.1604
vn 0.5599 -0.0000 -0.8286
vn -0.9981 -0.0000 -0.0624
vn -1.0000 -0.0000 -0.0010
vn -0.0016 0.9362 -0.3515
vn -0.0342 -0.9469 0.3198
vn 0.9731 -0.0000 -0.2304
vn 0.0342 0.9469 -0.3198
vn 0.0016 -0.9362 0.3515
vt 0.625000 0.187500
vt 0.375000 0.250000
vt 0.375000 0.187500
vt 0.625000 0.250000
vt 0.375000 0.500000
vt 0.625000 0.688157
vt 0.375000 0.750000
vt 0.375000 0.688157
vt 0.625000 0.750000
vt 0.375000 1.000000
vt 0.125000 0.688157
vt 0.125000 0.750000
vt 0.875000 0.688157
vt 0.625000 0.562500
vt 0.875000 0.625000
vt 0.625000 0.625000
vt 0.375000 0.562500
vt 0.125000 0.625000
vt 0.125000 0.562500
vt 0.375000 0.625000
vt 0.375000 0.061843
vt 0.625000 0.125000
vt 0.375000 0.125000
vt 0.625000 0.500000
vt 0.125000 0.500000
vt 0.875000 0.500000
vt 0.625000 0.000000
vt 0.375000 0.000000
vt 0.625000 1.000000
vt 0.875000 0.750000
vt 0.875000 0.562500
vt 0.625000 0.061843
s 0
usemtl マテリアル
f 13/1/1 3/2/1 15/3/1
f 4/4/2 7/5/2 3/2/2
f 18/6/3 5/7/3 20/8/3
f 6/9/4 1/10/4 5/7/4
f 17/11/5 5/7/5 1/12/5
f 19/13/6 6/9/6 18/6/6
f 16/14/6 10/15/6 12/16/6
f 14/17/5 9/18/5 15/19/5
f 16/14/7 11/20/7 14/17/7
f 17/21/8 10/22/8 9/23/8
f 8/24/9 14/17/9 7/5/9
f 3/25/5 14/17/5 15/19/5
f 4/26/6 16/14/6 8/24/6
f 10/22/10 15/3/10 9/23/10
f 2/27/11 17/21/11 1/28/11
f 12/16/12 19/13/12 18/6/12
f 11/20/13 17/11/13 9/18/13
f 12/16/14 20/8/14 11/20/14
f 13/1/1 4/4/1 3/2/1
f 4/4/2 8/24/2 7/5/2
f 18/6/3 6/9/3 5/7/3
f 6/9/4 2/29/4 1/10/4
f 17/11/5 20/8/5 5/7/5
f 19/13/6 2/30/6 6/9/6
f 16/14/6 13/31/6 10/15/6
f 14/17/5 11/20/5 9/18/5
f 16/14/7 12/16/7 11/20/7
f 17/21/8 19/32/8 10/22/8
f 8/24/9 16/14/9 14/17/9
f 3/25/5 7/5/5 14/17/5
f 4/26/6 13/31/6 16/14/6
f 10/22/10 13/1/10 15/3/10
f 2/27/11 19/32/11 17/21/11
f 12/16/15 10/15/15 19/13/15
f 11/20/16 20/8/16 17/11/16
f 12/16/14 18/6/14 20/8/14
