{
	"asset":{
		"generator":"Khronos glTF Blender I/O v4.1.63",
		"version":"2.0"
	},
	"scene":0,
	"scenes":[
		{
			"name":"Scene",
			"nodes":[
				0
			]
		}
	],
	"nodes":[
		{
			"mesh":0,
			"name":"player"
		}
	],
	"materials":[
		{
			"doubleSided":true,
			"name":"\u30de\u30c6\u30ea\u30a2\u30eb.003",
			"pbrMetallicRoughness":{
				"baseColorTexture":{
					"index":0
				},
				"metallicFactor":0,
				"roughnessFactor":0.5
			}
		}
	],
	"meshes":[
		{
			"name":"\u7403.002",
			"primitives":[
				{
					"attributes":{
						"POSITION":0,
						"NORMAL":1,
						"TEXCOORD_0":2
					},
					"indices":3,
					"material":0
				}
			]
		}
	],
	"textures":[
		{
			"sampler":0,
			"source":0
		}
	],
	"images":[
		{
			"mimeType":"image/png",
			"name":"Player",
			"uri":"Player.png"
		}
	],
	"accessors":[
		{
			"bufferView":0,
			"componentType":5126,
			"count":2032,
			"max":[
				2.3970348834991455,
				1,
				0.9999990463256836
			],
			"min":[
				-2.3970401287078857,
				-1,
				-1.2318097352981567
			],
			"type":"VEC3"
		},
		{
			"bufferView":1,
			"componentType":5126,
			"count":2032,
			"type":"VEC3"
		},
		{
			"bufferView":2,
			"componentType":5126,
			"count":2032,
			"type":"VEC2"
		},
		{
			"bufferView":3,
			"componentType":5123,
			"count":2952,
			"type":"SCALAR"
		}
	],
	"bufferViews":[
		{
			"buffer":0,
			"byteLength":24384,
			"byteOffset":0,
			"target":34962
		},
		{
			"buffer":0,
			"byteLength":24384,
			"byteOffset":24384,
			"target":34962
		},
		{
			"buffer":0,
			"byteLength":16256,
			"byteOffset":48768,
			"target":34962
		},
		{
			"buffer":0,
			"byteLength":5904,
			"byteOffset":65024,
			"target":34963
		}
	],
	"samplers":[
		{
			"magFilter":9729,
			"minFilter":9987
		}
	],
	"buffers":[
		{
			"byteLength":70928,
			"uri":"Player.bin"
		}
	]
}
